<svg xmlns="http://www.w3.org/2000/svg" viewBox="0 0 420 280">
  <g fill="none" class="com" transform="translate(63 97)">
    <g fill="#B52E31" transform="translate(90.058 18.51)">
      <polygon points=".36 42.873 .36 5.255 5.223 5.255 28.338 35.529 28.338 5.255 32.961 5.255 32.961 42.873 28.098 42.873 4.983 12.301 4.983 42.873"/>
      <path d="M70.605848 41.3805755C67.5438596 42.5151079 64.2417154 43.1122302 60.7594542 43.1122302 47.0705653 43.1122302 40.2261209 36.6035971 40.2261209 23.5266187 40.2261209 11.1661871 46.8304094 4.95611511 60.0389864 4.95611511 63.8214425 4.95611511 67.3637427 5.49352518 70.605848 6.50863309L70.605848 10.6884892C67.3637427 9.43453237 64.0015595 8.83741007 60.5793372 8.83741007 50.2526316 8.83741007 45.0892788 13.7338129 45.0892788 23.4071942 45.0892788 33.8568345 50.1925926 39.0517986 60.3391813 39.0517986 61.9602339 39.0517986 63.7614035 38.8129496 65.7426901 38.394964L65.7426901 25.7956835 70.605848 25.7956835 70.605848 41.3805755 70.605848 41.3805755zM78.4109162 28.3633094L78.4109162 5.25467626 83.2740741 5.25467626 83.2740741 28.3633094C83.2740741 35.5884892 86.8764133 39.2309353 94.1411306 39.2309353 101.345809 39.2309353 105.008187 35.5884892 105.008187 28.3633094L105.008187 5.25467626 109.871345 5.25467626 109.871345 28.3633094C109.871345 38.2158273 104.647953 43.1719424 94.1411306 43.1719424 83.634308 43.1719424 78.4109162 38.2158273 78.4109162 28.3633094L78.4109162 28.3633094 78.4109162 28.3633094z"/>
      <polygon points="123.44 5.255 123.44 38.932 143.253 38.932 143.253 42.873 118.577 42.873 118.577 5.255"/>
      <polygon points="150.278 42.873 145.174 42.873 163.966 .299 182.759 42.873 177.355 42.873 172.492 31.05 160.004 31.05 161.325 27.109 170.871 27.109 163.786 10.091"/>
      <path d="M187.982066,42.8733813 L187.982066,5.25467626 L204.132554,5.25467626 C211.337232,5.25467626 214.939571,8.24028777 214.939571,14.271223 C214.939571,19.1676259 211.397271,22.8100719 204.37271,25.1388489 L217.341131,42.8733813 L210.916959,42.8733813 L198.909162,25.9748201 L198.909162,22.8100719 C206.11384,21.6755396 209.776218,18.928777 209.776218,14.5100719 C209.776218,11.0467626 207.794932,9.31510791 203.77232,9.31510791 L192.965302,9.31510791 L192.965302,42.8733813 L187.982066,42.8733813 L187.982066,42.8733813 Z"/>
    </g>
    <polygon fill="#E23237" points="0 13.734 38.725 0 78.471 13.495 72.047 64.429 38.725 82.761 5.944 64.668"/>
    <polygon fill="#B52E31" points="78.471 13.495 38.725 0 38.725 82.761 72.047 64.429"/>
    <path fill="#FFF" d="M38.7851852,9.67338129 L38.7851852,9.67338129 L14.6495127,63.0561151 L23.6553606,62.8769784 L28.5185185,50.8151079 L38.7851852,50.8151079 L50.0725146,50.8151079 L55.3559454,62.9964029 L63.9415205,63.1755396 L38.7851852,9.67338129 L38.7851852,9.67338129 Z M38.8452242,26.8107914 L47.0105263,43.7690647 L39.2054581,43.7690647 L38.7851852,43.7690647 L31.7005848,43.7690647 L38.8452242,26.8107914 L38.8452242,26.8107914 Z"/>
  </g>
</svg>
