<svg xmlns="http://www.w3.org/2000/svg" viewBox="0 0 420 280">
  <g fill="none" transform="translate(46 111)">
    <polygon fill="#59666C" points="21.082 18.312 10.511 36.623 0 18.312 10.511 0"/>
    <polygon fill="#BCAE79" points="31.593 0 10.511 0 21.082 18.312 42.164 18.312"/>
    <polygon fill="#59666C" points="31.593 36.623 42.164 18.312 52.675 36.623 42.164 54.935"/>
    <polygon fill="#BCAE79" points="21.082 54.935 42.104 54.935 31.593 36.623 10.511 36.623"/>
    <path fill="#59666C" d="M90.8741989,36.3823861 L90.8741989,0.240942954 L85.1082219,0.240942954 L85.1082219,15.1794061 L68.0505402,15.1794061 L68.0505402,0.240942954 L62.224501,0.240942954 L62.224501,36.3823861 L68.0505402,36.3823861 L68.0505402,20.1187367 L85.1082219,20.1187367 L85.1082219,36.3823861 L90.8741989,36.3823861 Z M107.571507,36.3823861 L107.571507,0.240942954 L101.745468,0.240942954 L101.745468,36.3823861 L107.571507,36.3823861 Z M142.407618,25.4194817 C142.407618,21.6848659 140.245376,18.0707216 135.500458,17.1671855 L135.500458,17.046714 C139.164256,15.7817635 141.626808,12.4687979 141.626808,8.79441783 C141.626808,3.25272988 137.542575,0 129.734481,0 C125.349936,0 121.265702,0.120471477 118.442776,0.180707216 L118.442776,36.3221504 C122.466947,36.3823861 126.070683,36.5028576 128.292987,36.5028576 C139.28438,36.5028576 142.407618,30.1178693 142.407618,25.4194817 Z M135.56052,9.75818965 C135.56052,13.372334 132.737594,15.6010563 127.33199,15.6010563 C126.130745,15.6010563 125.169749,15.6010563 124.208753,15.5408206 L124.208753,4.81885909 C125.590185,4.75862335 127.151804,4.69838761 128.773485,4.69838761 C133.938839,4.69838761 135.56052,6.80663846 135.56052,9.75818965 L135.56052,9.75818965 Z M136.281267,25.5399532 C136.281267,29.1540975 133.758652,31.7442342 128.473173,31.7442342 C126.611243,31.7442342 125.169749,31.6237628 124.268815,31.5032913 L124.268815,19.9982652 C125.049625,19.9380295 126.911555,19.9380295 127.512177,19.9380295 C132.557407,19.9380295 136.281267,21.4439229 136.281267,25.5399532 Z M170.036257,36.3823861 L170.036257,31.3828198 L156.82256,31.3828198 L156.82256,20.1187367 L169.375572,20.1187367 L169.375572,15.3601133 L156.82256,15.3601133 L156.82256,5.05980204 L170.036257,5.05980204 L170.036257,0.240942954 L150.996521,0.240942954 L150.996521,36.3823861 L170.036257,36.3823861 Z M203.671123,36.3823861 L194.181285,23.7931167 C193.280352,22.588402 192.139169,21.20298 191.11811,19.9380295 C197.004212,19.2754363 201.328694,15.6010563 201.328694,9.81842539 C201.328694,2.6503725 196.223402,0 188.71562,0 C184.631386,0 181.688335,0.0602357386 179.045596,0.240942954 L179.045596,36.3823861 L184.871635,36.3823861 L184.871635,20.7210941 L185.111884,20.7210941 L196.343527,36.3823861 L203.671123,36.3823861 L203.671123,36.3823861 Z M195.262406,10.4207828 C195.262406,14.0349271 192.43948,16.4443566 187.754624,16.4443566 C186.493316,16.4443566 185.472258,16.3841209 184.931697,16.3238852 L184.931697,4.87909483 C185.772569,4.81885909 186.85369,4.75862335 187.994873,4.75862335 C192.799854,4.75862335 195.262406,6.50545977 195.262406,10.4207828 L195.262406,10.4207828 Z"/>
    <path fill="#BCAE79" d="M240.068852,36.3823861 L240.068852,0.240942954 L234.422999,0.240942954 L234.422999,10.9629044 C234.422999,16.2636494 234.603186,24.0340597 234.783373,28.1300899 C233.462003,25.4797174 232.020509,22.588402 230.398828,19.9380295 L218.506501,0.240942954 L210.878594,0.240942954 L210.878594,36.3823861 L216.524446,36.3823861 L216.524446,24.2147669 C216.524446,19.0947291 216.404322,11.745969 216.224135,8.19206045 C217.365318,10.60149 218.626625,13.1916268 220.248306,15.7817635 L232.561069,36.3221504 L240.068852,36.3221504 L240.068852,36.3823861 Z M278.56876,36.3823861 L265.475188,0.240942954 L258.988464,0.240942954 L246.075078,36.3823861 L251.961179,36.3823861 L254.724043,28.4312686 L269.319172,28.4312686 L272.082036,36.3823861 L278.56876,36.3823861 L278.56876,36.3823861 Z M267.757554,23.732881 L256.2256,23.732881 L260.309833,12.5290336 C261.03058,10.60149 261.571141,8.61371062 261.991577,6.80663846 L262.111701,6.80663846 C262.532137,8.79441783 263.012635,10.4810185 263.733382,12.3483264 L267.757554,23.732881 L267.757554,23.732881 Z M302.954038,5.12003778 L302.954038,0.240942954 L277.307453,0.240942954 L277.307453,5.12003778 L287.217726,5.12003778 L287.217726,36.3823861 L293.043765,36.3823861 L293.043765,5.12003778 L302.954038,5.12003778 Z M328,36.3823861 L328,31.3828198 L314.786303,31.3828198 L314.786303,20.1187367 L327.339315,20.1187367 L327.339315,15.3601133 L314.786303,15.3601133 L314.786303,5.05980204 L328,5.05980204 L328,0.240942954 L308.960264,0.240942954 L308.960264,36.3823861 L328,36.3823861 Z"/>
  </g>
</svg>
