<svg xmlns="http://www.w3.org/2000/svg" viewBox="0 0 420 280">
  <g fill="none" transform="translate(149 79)">
    <rect width="122" height="122" fill="#F7DF1E"/>
    <path fill="#000" d="M81.9530159,95.3129841 C84.4104444,99.3254286 87.607619,102.27473 93.2622222,102.27473 C98.0124762,102.27473 101.046984,99.9005714 101.046984,96.620127 C101.046984,92.6890159 97.9292063,91.2966667 92.7006349,89.0096508 L89.8346032,87.7799683 C81.5618413,84.2555238 76.0660317,79.8402857 76.0660317,70.5063175 C76.0660317,61.9082222 82.6172381,55.3628254 92.8555556,55.3628254 C100.144571,55.3628254 105.384762,57.8996508 109.160952,64.541873 L100.233651,70.2739365 C98.2680952,66.7494921 96.147619,65.3610159 92.8555556,65.3610159 C89.4976508,65.3610159 87.3694286,67.4911746 87.3694286,70.2739365 C87.3694286,73.7131746 89.4995873,75.1055238 94.4183175,77.2356825 L97.2843492,78.4634286 C107.024984,82.6404762 112.524667,86.8988571 112.524667,96.4729524 C112.524667,106.79454 104.416508,112.449143 93.5275238,112.449143 C82.8806032,112.449143 76.002127,107.375492 72.6364762,100.725524 L81.9530159,95.3129841 Z M41.4548254,96.3064127 C43.2557778,99.5016508 44.8940635,102.203079 48.8329206,102.203079 C52.5994286,102.203079 54.9755238,100.729397 54.9755238,94.9992698 L54.9755238,56.0173651 L66.4396508,56.0173651 L66.4396508,95.1541905 C66.4396508,107.024984 59.4798413,112.427841 49.3209206,112.427841 C40.141873,112.427841 34.8261587,107.677587 32.1227937,101.956175 L41.4548254,96.3064127 Z"/>
  </g>
</svg>
