<svg xmlns="http://www.w3.org/2000/svg" viewBox="0 0 420 280">
  <g fill="none" transform="translate(60 114)">
    <path fill="#F60" d="M40.1013029,18.665494 L26.933855,18.665494 C25.8808457,18.5405449 25.0790129,17.6178428 25.0790129,16.5317455 L25.0790129,2.78732919 C25.0790129,1.61472863 24.1226097,0.672803595 22.9536727,0.672803595 L18.3455491,0.672803595 C17.1669514,0.672803595 16.220209,1.62434011 16.220209,2.78732919 L16.220209,16.6759177 C16.1622452,17.7235689 15.2927878,18.5693792 14.2494391,18.665494 L10.8005918,18.665494 C9.78622495,18.5405449 9.00371337,17.6947346 8.93608893,16.6759177 L8.93608893,2.78732919 C8.93608893,1.61472863 7.97968589,0.672803595 6.81074886,0.672803595 L2.20262516,0.672803595 C1.02402749,0.672803595 0.0772850934,1.62434011 0.0772850934,2.78732919 L0.0772850934,20.7800197 L0.0772850934,42.8960349 C0.0772850934,44.0686354 1.03368812,45.0105605 2.20262516,45.0105605 L6.81074886,45.0105605 L18.3455491,45.0105605 L22.9536727,45.0105605 L40.1109634,45.0105605 C41.2895611,45.0105605 42.2363036,44.0590239 42.2363036,42.8960349 L42.2363036,20.7800197 C42.2266429,19.6074191 41.2799006,18.665494 40.1013029,18.665494 Z M34.034423,33.8324093 C34.034423,35.0050099 33.07802,35.946935 31.909083,35.946935 L27.3009592,35.946935 C26.1223615,35.946935 25.1756192,34.9953984 25.1756192,33.8324093 L25.1756192,29.5072434 C25.1756192,28.3346428 26.1320222,27.3927177 27.3009592,27.3927177 L31.909083,27.3927177 C33.0876807,27.3927177 34.034423,28.3442543 34.034423,29.5072434 L34.034423,33.8324093 Z"/>
    <g transform="translate(51.491)">
      <path fill="#F60" d="M21.4272921 45.0490065L19.224667 34.8223917C18.905866 33.2941665 18.5677436 31.9389478 18.1813182 30.7663473 17.8045534 29.5841352 17.2732184 28.5941528 16.6066344 27.7867885 15.9303899 26.9794241 15.0512719 26.373901 13.95962 25.9509959 12.8679681 25.5377022 11.4381938 25.3262496 9.67029732 25.3262496L5.04285234 25.3262496 5.04285234 45.0490065 0 45.0490065 0 .749695435 11.0324471.749695435C12.8583074.749695435 14.6262039.941925033 16.3457972 1.31677275 18.05573 1.69162047 19.5724499 2.31636666 20.8862966 3.18139985 22.200143 4.04643306 23.2531525 5.19981064 24.0549853 6.63192114 24.8568182 8.06403167 25.2529043 9.82293249 25.2529043 11.9182351 25.2529043 13.5233523 25.0596915 14.9458513 24.6829266 16.1665092 24.306162 17.3871672 23.7361843 18.44443 22.9826546 19.3286861 22.2291249 20.2129424 21.2823826 20.9626378 20.1617488 21.5681609 19.0411149 22.1736842 17.7176076 22.6638697 16.2105483 23.0387175L16.2105483 23.1636666C17.6789652 23.5385144 18.8575629 24.0190884 19.7366808 24.5861656 20.6157987 25.1628544 21.3210251 25.8452695 21.8523601 26.6430223 22.3740346 27.4407752 22.7797813 28.3538658 23.0696004 29.3822942 23.3594195 30.4107225 23.6299173 31.5929345 23.9004152 32.9097072L26.4701444 45.0490065 21.4272921 45.0490065zM20.2003912 12.4468665C20.2003912 10.6110738 19.8719297 9.17896333 19.224667 8.16975794 18.5774043 7.16055255 17.7079471 6.41085711 16.645277 5.93028312 15.5729463 5.44970912 14.3557061 5.16136472 12.9935563 5.06524992 11.6314066 4.96913513 10.2306142 4.92107773 8.80084 4.92107773L5.05251297 4.92107773 5.05251297 21.1644788 7.82511571 21.1644788C9.34183567 21.1644788 10.8295737 21.0587525 12.3173118 20.8376885 13.8050498 20.6166245 15.1188964 20.1937194 16.2878334 19.5689731 17.4567705 18.944227 18.4035129 18.0599707 19.1280605 16.9162047 19.8332871 15.7724386 20.2003912 14.2826592 20.2003912 12.4468665zM49.694315 45.0490065L49.694315 41.0025734 49.5687267 41.0025734C49.1436587 41.8003263 48.5833418 42.4923527 47.8684547 43.0882645 47.1535677 43.6841763 46.371056 44.1839732 45.52092 44.5780439 44.670784 44.9721145 43.7723447 45.2700705 42.8449236 45.4719115 41.9078419 45.6737526 41.0094027 45.7698674 40.149606 45.7698674 38.8260989 45.7698674 37.6475012 45.5680263 36.6234736 45.1547327 35.5897855 44.7510505 34.7299888 44.1743617 34.0440837 43.4342778 33.3485178 42.6941939 32.8171828 41.7907148 32.4500785 40.7334519 32.0829744 39.6761891 31.8994223 38.5035886 31.8994223 37.2060389 31.8994223 36.0334383 32.1312775 34.9953984 32.5949881 34.0726963 33.0586988 33.1499942 33.6673188 32.34263 34.4401698 31.6409919 35.20336 30.9393539 36.0921386 30.3434421 37.1065055 29.8340337 38.1208723 29.3246252 39.1642211 28.9209431 40.2462123 28.6133758 41.3282037 28.296197 42.4198556 28.0655213 43.5115076 27.9213492 44.6031595 27.777177 45.627187 27.7002852 46.5642688 27.7002852 47.0859431 27.7002852 47.5979569 27.6906737 48.0809887 27.6810622 48.5640206 27.6714507 49.0663737 27.6137819 49.5977087 27.5080556L49.5977087 26.8544749C49.5977087 25.7299317 49.5783874 24.6053886 49.5494055 23.4808454 49.5204236 22.3563023 49.3272108 21.3470969 48.9794279 20.4532294 48.631645 19.5593616 48.0616675 18.8288892 47.2791559 18.2810349 46.4966443 17.7331804 45.3277073 17.4544476 43.8013266 17.4544476 42.8932268 17.4544476 42.0817334 17.5409509 41.3571856 17.7043461 40.6326379 17.8677412 40.0046964 18.1368626 39.4830221 18.5117104 38.9613478 18.886558 38.5362796 19.3863549 38.2078181 20.0111012 37.8793564 20.6358473 37.6571617 21.4047658 37.5315735 22.3178563L32.6432913 22.3178563C32.6626125 20.7704082 32.9910742 19.4632469 33.6383369 18.386761 34.2759389 17.3102753 35.1164144 16.4356307 36.1404418 15.7532156 37.1741298 15.0708005 38.343067 14.5806151 39.6569135 14.2634362 40.9707601 13.9462574 42.3039279 13.7924737 43.6757384 13.7924737 47.1632282 13.7924737 49.7522788 14.5806151 51.4428903 16.1472863 53.1335018 17.7139574 53.9836378 20.2033309 53.9836378 23.6057947L53.9836378 45.0490065 49.694315 45.0490065zM46.9796761 31.1892524C45.9942912 31.1892524 44.9123 31.2949787 43.7530235 31.5160427 42.593747 31.7371067 41.5020951 32.0927315 40.4877282 32.6021399 39.4733614 33.1115484 38.6328861 33.765129 37.9469809 34.5917163 37.2610756 35.4183035 36.9229534 36.4371204 36.9229534 37.6481668 36.9229534 38.9457167 37.3190395 40.0125909 38.1015511 40.8487897 38.8937232 41.6849885 39.937072 42.0982821 41.2412579 42.0982821 42.0141089 42.0982821 42.7676386 41.9829443 43.4825256 41.7330458 44.1974127 41.4927588 44.8639966 41.1659685 45.4822774 40.7430634 46.1005582 40.3297697 46.6608751 39.8203613 47.1728889 39.234061 47.675242 38.6477607 48.0906494 38.0134031 48.3997897 37.3213765 48.6509664 36.7542992 48.8538397 36.2352793 49.0180705 35.7739283 49.1823014 35.3125772 49.2982289 34.8320032 49.3851747 34.3610408 49.4721204 33.8900782 49.5204236 33.4095042 49.5397448 32.9000957 49.5590662 32.4002988 49.5687267 31.82361 49.5687267 31.1796409L46.9796761 31.1796409 46.9796761 31.1892524zM87.187246 30.0935437C87.187246 32.102343 86.9843727 34.043862 86.5689652 35.927712 86.1535579 37.811562 85.4676526 39.4839595 84.501589 40.9449045 83.5355253 42.4058494 82.2699819 43.57845 80.7049588 44.4530947 79.1399355 45.3277393 77.1884871 45.7698674 74.8602736 45.7698674 72.696291 45.7698674 70.8800913 45.4334656 69.4116745 44.7702735 67.9432577 44.0974699 66.7549993 43.1747678 65.8662209 41.9829443 64.9774423 40.7911209 64.3301796 39.3878447 63.9437542 37.7635046 63.5573286 36.148776 63.3641159 34.3802638 63.3641159 32.4771906L63.3641159.749695435 67.7403843.749695435 67.7403843 19.5593616 67.8949546 19.5593616C68.1654524 18.6366595 68.5808597 17.8292952 69.1218554 17.1180457 69.6725117 16.4067962 70.3101137 15.8108845 71.0443221 15.3110875 71.7785304 14.820902 72.590024 14.4460543 73.4691419 14.1865444 74.3482598 13.9270344 75.2660204 13.7924737 76.2127627 13.7924737 77.6811795 13.7924737 78.9757049 14.0231492 80.086678 14.4941117 81.1976512 14.9650743 82.1637149 15.6090434 82.9655477 16.4260192 83.7770413 17.242995 84.4532857 18.1849201 84.9942814 19.2614058 85.5449378 20.3378915 85.9700058 21.4816576 86.2888068 22.6927042 86.6076078 23.9037505 86.8298023 25.1436314 86.9650513 26.4123468 87.1196216 27.6714507 87.187246 28.9017201 87.187246 30.0935437zM82.1443936 29.9782058C82.1443936 29.2669564 82.105751 28.4692035 82.0381266 27.5849474 81.9608416 26.7006913 81.8352533 25.7876007 81.6613618 24.8648986 81.4874704 23.932585 81.2362938 23.029106 80.9174928 22.1448497 80.5986918 21.2605936 80.192945 20.4724522 79.6905919 19.7804257 79.1882389 19.0883991 78.5796186 18.5309334 77.8647315 18.1080282 77.1498445 17.6755116 76.3190297 17.4640589 75.3722874 17.4640589 74.3675811 17.4640589 73.4691419 17.6947346 72.696291 18.1560856 71.9234401 18.6174367 71.2471954 19.2229598 70.6772178 19.9726552 70.1072404 20.7223507 69.6338692 21.5777724 69.2571044 22.5389205 68.8803395 23.5000684 68.5808597 24.4804393 68.358665 25.4800332 68.1364705 26.4796271 67.9819002 27.4599982 67.8852939 28.4211461 67.7886876 29.3822942 67.7403843 30.2377158 67.7403843 30.9874112 67.7403843 32.1600118 67.82733 33.3902812 67.9915609 34.6782196 68.1557917 35.9757693 68.493914 37.1772044 68.9866065 38.2825246 69.4792989 39.3878447 70.1845254 40.3009354 71.102286 41.0217964 72.0200464 41.7426573 73.227626 42.0982821 74.7443459 42.0982821 75.7490521 42.0982821 76.6378307 41.9060524 77.4106816 41.5312048 78.173872 41.156357 78.8307952 40.6469486 79.3814515 40.0125909 79.9321079 39.3782333 80.3764971 38.6381492 80.7339407 37.8019506 81.0913842 36.9657519 81.3715427 36.1007186 81.5840767 35.206851 81.7966107 34.3129833 81.9415203 33.4095042 82.0284659 32.5156366 82.105751 31.621769 82.1443936 30.7759588 82.1443936 29.9782058zM118.226872 30.0935437C118.226872 32.102343 118.023998 34.043862 117.608591 35.927712 117.193183 37.811562 116.507278 39.4839595 115.541215 40.9449045 114.575151 42.4058494 113.309608 43.57845 111.744584 44.4530947 110.179561 45.3277393 108.228113 45.7698674 105.899899 45.7698674 103.735917 45.7698674 101.919717 45.4334656 100.4513 44.7702735 98.9828833 44.0974699 97.7946251 43.1747678 96.9058465 41.9829443 96.0170678 40.7911209 95.3698053 39.3878447 94.9833798 37.7635046 94.5969542 36.148776 94.4037416 34.3802638 94.4037416 32.4771906L94.4037416.749695435 98.78001.749695435 98.78001 19.5593616 98.9345802 19.5593616C99.205078 18.6366595 99.6204853 17.8292952 100.161481 17.1180457 100.712137 16.4067962 101.349739 15.8108845 102.083948 15.3110875 102.818156 14.820902 103.62965 14.4460543 104.508767 14.1865444 105.387885 13.9270344 106.305646 13.7924737 107.252388 13.7924737 108.720805 13.7924737 110.01533 14.0231492 111.126304 14.4941117 112.237277 14.9650743 113.20334 15.6090434 114.005173 16.4260192 114.816667 17.242995 115.492911 18.1849201 116.033907 19.2614058 116.584563 20.3378915 117.009631 21.4816576 117.328432 22.6927042 117.647233 23.9037505 117.869428 25.1436314 118.004677 26.4123468 118.159247 27.6714507 118.226872 28.9017201 118.226872 30.0935437zM113.184019 29.9782058C113.184019 29.2669564 113.145377 28.4692035 113.077752 27.5849474 113.000467 26.7006913 112.874879 25.7876007 112.700987 24.8648986 112.527096 23.932585 112.275919 23.029106 111.957118 22.1448497 111.638317 21.2605936 111.232571 20.4724522 110.730218 19.7804257 110.227864 19.0883991 109.619244 18.5309334 108.904357 18.1080282 108.18947 17.6755116 107.358655 17.4640589 106.411913 17.4640589 105.407207 17.4640589 104.508767 17.6947346 103.735917 18.1560856 102.963066 18.6174367 102.286821 19.2229598 101.716844 19.9726552 101.146866 20.7223507 100.673495 21.5777724 100.29673 22.5389205 99.9199651 23.5000684 99.6204853 24.4804393 99.3982908 25.4800332 99.1760961 26.4796271 99.0215259 27.4599982 98.9249195 28.4211461 98.8283132 29.3822942 98.78001 30.2377158 98.78001 30.9874112 98.78001 32.1600118 98.8669558 33.3902812 99.0311865 34.6782196 99.1954173 35.9757693 99.5335397 37.1772044 100.026232 38.2825246 100.518925 39.3878447 101.224151 40.3009354 102.141912 41.0217964 103.059672 41.7426573 104.267252 42.0982821 105.783971 42.0982821 106.788678 42.0982821 107.677456 41.9060524 108.450307 41.5312048 109.213498 41.156357 109.870421 40.6469486 110.421077 40.0125909 110.971733 39.3782333 111.416123 38.6381492 111.773566 37.8019506 112.13101 36.9657519 112.411168 36.1007186 112.623702 35.206851 112.836236 34.3129833 112.981146 33.4095042 113.068092 32.5156366 113.145377 31.621769 113.184019 30.7759588 113.184019 29.9782058zM125.974702 6.51658339L125.974702.749695435 131.771084.749695435 131.771084 6.51658339 125.974702 6.51658339zM126.670268 45.0490065L126.670268 14.4845002 131.046536 14.4845002 131.046536 45.0490065 126.670268 45.0490065zM148.348737 18.1464741L148.348737 36.9561404C148.348737 38.5900919 148.744823 39.8491958 149.546656 40.7526749 150.348489 41.656154 151.623693 42.0982821 153.372268 42.0982821 153.980888 42.0982821 154.502562 42.0502248 154.91797 41.9541099 155.343038 41.8579951 155.82607 41.7042115 156.376726 41.5023703L156.376726 45.4238541C155.729463 45.5295805 155.082201 45.6160838 154.434938 45.6737526 153.797336 45.7410329 153.150073 45.7698674 152.49315 45.7698674 151.044054 45.7698674 149.788172 45.6353068 148.725502 45.3661853 147.662832 45.0970638 146.774053 44.6549357 146.059166 44.0301896 145.344279 43.4150548 144.812944 42.6076905 144.465161 41.5984851 144.117378 40.5892797 143.943486 39.3493988 143.943486 37.869231L143.943486 18.1464741 138.929616 18.1464741 138.929616 14.4748888 143.943486 14.4748888 143.943486 7.36239363 148.319755 4.60389889 148.319755 14.4748888 156.608581 14.4748888 156.608581 18.1464741 148.348737 18.1464741z"/>
      <polygon fill="#B8B8B8" points="199.618 45.17 199.618 6.195 199.492 6.195 186.383 45.16 181.407 45.16 168.327 6.195 168.172 6.195 168.172 45.16 163.671 45.16 163.671 .87 171.235 .87 183.871 38.557 183.996 38.557 196.662 .87 204.129 .87 204.129 45.17"/>
      <path fill="#B8B8B8" d="M228.957089,45.1846346 C226.880052,45.1846346 225.034871,44.8770673 223.440866,44.2619325 C221.846861,43.6467979 220.446069,42.8009876 219.24815,41.7245019 C218.050231,40.6480161 217.045525,39.3889123 216.22437,37.9471902 C215.403216,36.5054682 214.746292,34.9676315 214.243939,33.3240685 C213.741586,31.6805053 213.374483,29.9792734 213.152287,28.2107611 C212.930093,26.4422487 212.823826,24.6929594 212.823826,22.9628931 C212.823826,21.1271004 212.920432,19.2913077 213.123306,17.4651265 C213.32618,15.6389453 213.654641,13.8800445 214.128012,12.1788125 C214.601384,10.4775806 215.238986,8.91090937 216.031158,7.44035295 C216.832991,5.97940799 217.837697,4.71069264 219.054936,3.63420688 C220.272176,2.55772113 221.721273,1.7119109 223.382901,1.09677619 C225.054191,0.481641474 227.005641,0.174074116 229.227588,0.174074116 C231.39157,0.174074116 233.285054,0.491252953 234.917702,1.12561063 C236.540689,1.7599683 237.941482,2.63461297 239.110419,3.73032169 C240.279356,4.8260304 241.245419,6.11396871 242.00861,7.6037481 C242.7718,9.08391602 243.380421,10.6698102 243.824809,12.3518192 C244.269198,14.0338282 244.578339,15.7831175 244.75223,17.5996872 C244.926122,19.4162569 245.022727,21.2039922 245.022727,22.9628931 C245.022727,23.8183148 244.993746,24.7986857 244.926122,25.8943945 C244.858497,26.9901032 244.75223,28.1338693 244.597659,29.3256928 C244.443091,30.5175162 244.220895,31.7189513 243.940737,32.9299977 C243.660578,34.1410442 243.293474,35.2848103 242.849086,36.3516845 C242.404696,37.4185588 241.873361,38.3893183 241.255079,39.2639629 C240.636799,40.1386077 239.912251,40.8306343 239.100757,41.3304313 L239.226346,41.4553804 L248.39429,40.8883031 L248.39429,45.1846346 L228.957089,45.1846346 Z M239.545147,22.8956127 C239.545147,21.742235 239.506505,20.4831313 239.43888,19.1183011 C239.361595,17.7534708 239.207024,16.3790293 238.965508,15.0141991 C238.723993,13.649369 238.36655,12.3133733 237.9125,11.0350464 C237.458449,9.75671961 236.830508,8.61295349 236.067318,7.61335958 C235.294467,6.62337715 234.357386,5.82562431 233.246412,5.22971256 C232.135439,4.6338008 230.792609,4.33584492 229.237248,4.33584492 C227.594939,4.33584492 226.194147,4.62418933 225.02521,5.20087811 C223.856273,5.77756691 222.870888,6.54648531 222.059395,7.51724477 C221.247901,8.48800425 220.600639,9.60293592 220.098286,10.8716513 C219.605593,12.1403666 219.228828,13.4571394 218.958331,14.8411925 C218.697493,16.2252456 218.523601,17.6092987 218.436656,18.9933517 C218.34971,20.3870164 218.311067,21.6845662 218.311067,22.8956127 C218.311067,24.0489903 218.35937,25.2888712 218.465637,26.6248669 C218.571904,27.9608626 218.755457,29.2968583 219.035616,30.6424655 C219.306113,31.9784613 219.692538,33.276011 220.185231,34.5255034 C220.677924,35.7749957 221.315526,36.8899275 222.098037,37.8510754 C222.88055,38.8122235 223.827291,39.5811417 224.938264,40.1578307 C226.049238,40.7345195 227.372745,41.0228638 228.879803,41.0228638 C230.580075,41.0228638 232.029172,40.7537423 233.21743,40.205888 C234.405689,39.6580337 235.391074,38.9275611 236.183245,38.0144705 C236.975417,37.0917685 237.593699,36.0345057 238.047749,34.8330707 C238.501799,33.6316358 238.839921,32.3533089 239.062115,31.0077017 C239.284309,29.6620945 239.419558,28.2876529 239.467862,26.9035999 C239.516165,25.5003237 239.545147,24.1643279 239.545147,22.8956127 Z"/>
    </g>
  </g>
</svg>
