<svg xmlns="http://www.w3.org/2000/svg" viewBox="0 0 420 280">
  <path fill="#5FB832" d="M80.731198 19.1811995C79.9797313 19.5869328 79.401598 20.4557328 79.401598 21.6135995 79.401598 23.1745328 80.615598 24.4401327 82.2401313 24.4401327 82.8155979 24.4401327 83.3385312 24.2707994 83.7406646 24.0390661 86.6953312 22.0702661 89.7625311 21.0859995 92.5359977 21.0859995 95.5442643 21.0859995 97.2797309 22.3603994 97.2797309 24.3879994L97.2797309 24.5026661C97.2797309 26.875066 94.041731 27.683866 90.4515977 28.7822659 85.9411979 30.0562659 80.9073313 31.9057325 80.9073313 37.7505324L80.9073313 37.8677324C80.9073313 43.6546656 85.7093312 47.1827988 91.784931 47.1827988 95.0259976 47.1827988 98.4379975 46.2557322 101.389064 44.6958655 102.375464 44.1734656 103.066131 43.2473323 103.066131 42.0354656 103.066131 40.413599 101.795331 39.1958657 100.175464 39.1958657 99.5937308 39.1958657 99.2469309 39.311999 98.7890642 39.544799 96.2969309 40.8193323 93.752131 41.6306656 91.6119977 41.6306656 88.8906644 41.6306656 87.3281312 40.3546657 87.3281312 38.6177324L87.3281312 38.505199C87.3281312 36.2478658 90.6259977 35.3245325 94.214531 34.1650658 98.6697309 32.7754658 103.703597 30.7515992 103.703597 25.2551994L103.703597 25.1379994C103.703597 18.7161329 98.7250642 15.5374663 92.3619977 15.5374663 88.4879978 15.5374663 84.2639979 16.7483996 80.731198 19.1811995M130.825997 31.3297326L130.825997 31.4469325C130.825997 37.3458657 126.832797 41.2229323 122.090664 41.2229323 117.346397 41.2229323 113.180664 37.2885324 113.180664 31.4469325L113.180664 31.3297326C113.180664 25.4859994 117.346397 21.5478661 122.090664 21.5478661 126.892663 21.5478661 130.825997 25.311466 130.825997 31.3297326M106.351597 43.6557322C106.351597 45.6193322 107.854131 47.1838655 109.825464 47.1838655 111.791197 47.1838655 113.353597 45.6193322 113.353597 43.6557322L113.353597 41.5697323C115.610397 44.7505322 118.79173 47.2973322 123.768797 47.2973322 130.94213 47.2973322 137.943997 41.6297323 137.943997 31.4469325L137.943997 31.3297326C137.943997 21.2030661 131.00053 15.4765329 123.768797 15.4765329 118.677597 15.4765329 115.494797 18.0250662 113.353597 20.8541328L113.353597 10.0406264C113.353597 8.06614647 111.791197 6.56145317 109.825464 6.56145317 107.917197 6.56145317 106.351597 8.06614647 106.351597 10.0406264L106.351597 43.6557322M140.595996 43.6515989C140.595996 45.6150655 142.095996 47.1797322 144.063996 47.1797322 146.035996 47.1797322 147.595996 45.6150655 147.595996 43.6515989L147.595996 41.9682656C147.94533 44.5901322 152.222663 47.1797322 155.290663 47.1797322 157.487996 47.1797322 158.762663 45.7343989 158.762663 43.7103989 158.762663 41.860399 157.546663 40.643199 155.983996 40.3546657 151.007996 39.486399 147.595996 35.1322658 147.595996 29.1083993L147.595996 19.0145329C147.595996 17.1030662 146.035996 15.5417329 144.063996 15.5417329 142.155996 15.5417329 140.595996 17.0469329 140.595996 19.0145329L140.595996 43.6515989M161.410663 43.6374656C161.410663 45.6041322 162.919996 47.1687988 164.883996 47.1687988 166.850662 47.1687988 168.413329 45.6041322 168.413329 43.6374656L168.413329 19.0087995C168.413329 17.0442662 166.850662 15.5417329 164.883996 15.5417329 162.973329 15.5417329 161.410663 17.0442662 161.410663 19.0087995L161.410663 43.6374656M171.942662 43.6239989C171.942662 45.5906655 173.447996 47.1515988 175.411996 47.1515988 177.381329 47.1515988 178.942662 45.5906655 178.942662 43.6239989L178.942662 42.1874656C180.913329 45.0234655 183.743995 47.1693322 188.487995 47.1693322 195.373328 47.1693322 199.367995 42.5385323 199.367995 35.4806658L199.367995 19.0130662C199.367995 17.0469329 197.861328 15.5406663 195.894662 15.5406663 193.927995 15.5406663 192.366662 17.0469329 192.366662 19.0130662L192.366662 33.3390658C192.366662 38.081199 189.994662 40.8026656 185.827995 40.8026656 181.778662 40.8026656 178.942662 37.9677324 178.942662 33.2197325L178.942662 19.0130662C178.942662 17.0469329 177.381329 15.5406663 175.411996 15.5406663 173.503996 15.5406663 171.942662 17.0469329 171.942662 19.0130662L171.942662 43.6239989M217.873328 21.6119995C213.066661 21.6119995 209.135995 25.3739994 209.135995 31.3921325L209.135995 31.5057325C209.135995 37.4062657 213.125328 41.2833323 217.873328 41.2833323 222.618661 41.2833323 226.783994 37.3478657 226.783994 31.5057325L226.783994 31.3921325C226.783994 25.5469327 222.618661 21.6119995 217.873328 21.6119995M230.133328 47.2442655C228.169328 47.2442655 226.606661 45.6786655 226.606661 43.7145322L226.606661 41.6322656C224.347994 44.8130655 221.169328 47.3583988 216.195995 47.3583988 209.017328 47.3583988 202.018662 41.6906656 202.018662 31.5057325L202.018662 31.3921325C202.018662 21.2655995 208.959995 15.5406663 216.195995 15.5406663 221.257328 15.5406663 224.431994 18.0587995 226.574661 20.8739995 226.223994 15.3723996 222.855994 12.4677064 216.947995 12.4677064 213.421328 12.4677064 210.353328 13.338533 207.571995 14.9035996 207.225328 15.072933 206.826661 15.1874663 206.303995 15.1874663 204.683995 15.1874663 203.349328 13.8551997 203.349328 12.2979197 203.349328 10.9661464 204.102662 9.98281308 205.321328 9.51978643 209.018662 7.72551981 212.834661 6.79947983 217.118661 6.79947983 222.618661 6.79947983 226.901328 8.12917313 229.678661 10.9078131 232.218661 13.455733 233.607994 17.2697329 233.607994 22.4218661L233.607994 43.7145322C233.607994 45.6786655 232.103994 47.2442655 230.133328 47.2442655M168.441329 55.5994653C168.441329 53.6526653 166.859996 52.069732 164.910663 52.069732 162.959996 52.069732 161.382663 53.6526653 161.382663 55.5994653 161.382663 57.5515986 162.959996 59.1275985 164.910663 59.1275985 166.859996 59.1275985 168.441329 57.5515986 168.441329 55.5994653M57.2426652 17.6327996C49.4811988 7.29166648 32.9015992 10.7822931 22.2718661 10.2802131 22.2718661 10.2802131 20.3901328 10.1755197 18.4947995 9.86354642 18.4947995 9.86354642 19.2114662 10.1692664 20.1254662 10.4843731 27.5911993 13.0661463 31.1193326 13.584933 35.6557324 15.9150663 44.1791989 20.2811995 52.6619987 29.7917326 54.3879986 39.6713323 51.1437321 30.1693326 41.2765323 21.9911995 32.2921325 18.6702662 26.142666 16.4010663 15.0218663 14.1926663 15.0202663 14.191733 15.0254663 14.1838663 14.5770663 14.424533 14.5707996 14.429733 7.00781316 18.1093329 6.7895865 34.4895991 20.5254662 39.7697323 26.547866 42.0863989 32.3083992 40.813999 38.818799 42.3635989 45.7625322 44.0145322 53.8046653 49.2193321 57.0734652 56.0239986 60.7379985 45.1546655 65.1401317 28.149466 57.2426652 17.6327996zM57.3775986 59.3921318C56.4535986 57.1969319 55.3259986 55.2187986 54.0259986 53.4494653 48.3041321 59.3218652 40.3177323 62.9806651 31.4901325 62.9806651 14.1254663 62.9806651 0 48.8535988 0 31.4921325 0 22.3906661 3.88489324 14.1822663 10.0786397 8.42863979L10.7682264 7.81770647C9.61666643 8.75677311 9.43958643 10.4479197 10.3729197 11.6005197 11.3119731 12.7536397 13.004693 12.932293 14.1567996 11.9984397 15.3119996 11.0625064 15.4879996 9.36718643 14.5526663 8.21250646 13.6207997 7.05729316 11.9249997 6.88281316 10.7713597 7.81510647L11.2406264 7.39947982C16.7193329 2.78645326 23.7817327 0 31.4901325 0 48.0879988 0 61.7171985 12.9166663 62.8838651 29.2197326 63.7478651 37.2021324 61.3901318 47.3379988 57.3775986 59.3921318L57.3775986 59.3921318zM241.806661 45.0390655L240.706661 45.0390655 240.706661 43.5827989 241.806661 43.5827989C242.162661 43.5827989 242.551994 43.8702656 242.551994 44.2937322 242.551994 44.7515989 242.162661 45.0390655 241.806661 45.0390655L241.806661 45.0390655zM242.485327 41.4338656L241.417327 43.0587989 240.706661 43.0587989 240.706661 41.4338656 240.131994 41.4338656 240.131994 45.5473322 241.806661 45.5473322C242.501327 45.5473322 243.145327 45.0551989 243.145327 44.2937322 243.145327 43.3802656 242.330661 43.0750656 242.094661 43.0750656L243.195994 41.4338656 242.485327 41.4338656zM241.502661 46.5458655C239.809327 46.5458655 238.454661 45.1917322 238.454661 43.4978656 238.454661 41.8229323 239.809327 40.4510657 241.502661 40.4510657 243.177327 40.4510657 244.549327 41.8229323 244.549327 43.4978656 244.549327 45.1917322 243.177327 46.5458655 241.502661 46.5458655zM241.502661 39.908799C239.521327 39.908799 237.913327 41.5177323 237.913327 43.4978656 237.913327 45.4969322 239.521327 47.0879988 241.502661 47.0879988 243.499994 47.0879988 245.091994 45.4969322 245.091994 43.4978656 245.091994 41.5177323 243.499994 39.908799 241.502661 39.908799L241.502661 39.908799z" transform="matrix(1 0 0 -1 87 170.987)"/>
</svg>
